<?xml version="1.0" standalone="no"?><!DOCTYPE svg PUBLIC "-//W3C//DTD SVG 1.1//EN" "http://www.w3.org/Graphics/SVG/1.1/DTD/svg11.dtd"><svg t="1606542361568" class="icon" viewBox="0 0 1024 1024" version="1.1" xmlns="http://www.w3.org/2000/svg" p-id="33190" xmlns:xlink="http://www.w3.org/1999/xlink" width="200" height="200"><defs><style type="text/css"></style></defs><path d="M36.141176 708.367059a481.882353 105.411765 0 1 0 963.764706 0 481.882353 105.411765 0 1 0-963.764706 0Z" fill="#F5F5F5" p-id="33191"></path><path d="M662.738824 451.312941c0-24.094118 14.908235-44.122353 33.581176-44.122353H864.376471v273.167059c0 31.924706-19.877647 58.127059-44.42353 58.127059h-603.858823c-24.545882 0-44.423529-26.202353-44.42353-58.127059V407.190588h168.056471c18.522353 0 33.581176 19.877647 33.581176 44.122353v0.301177c0 24.094118 15.058824 43.670588 33.731765 43.670588h222.117647c18.522353 0 33.581176-19.727059 33.581177-43.971765z" fill="#FAFAFA" p-id="33192"></path><path d="M871.002353 399.661176L717.854118 226.032941a43.489882 43.489882 0 0 0-35.538824-22.13647H353.28c-14.757647 0.903529-27.858824 9.185882-35.087059 22.13647L165.044706 399.661176h-0.90353v280.696471c0 36.291765 23.341176 65.656471 51.952942 65.656471h603.858823c28.611765 0 51.952941-29.515294 51.952941-65.656471V399.661176h-0.903529zM330.089412 235.369412l1.054117-1.505883c4.668235-8.734118 13.251765-14.305882 22.738824-14.908235h327.981176c9.788235 0.602353 18.522353 6.324706 23.190589 14.908235l145.92 165.797647H696.32c-22.588235 0-41.110588 23.190588-41.110588 51.651765v0.150588c0 19.727059-11.896471 36.291765-26.202353 36.291765H406.889412c-14.456471 0-26.202353-16.263529-26.202353-36.442353 0-28.461176-18.371765-51.651765-41.110588-51.651765H185.223529l144.865883-164.291764zM856.847059 535.190588v145.167059c0 27.858824-16.564706 50.597647-36.894118 50.597647h-603.858823c-20.329412 0-36.894118-22.738824-36.894118-50.597647V414.72h160.527059c14.155294 0 26.051765 16.715294 26.051765 36.894118 0 28.16 18.522353 51.2 41.261176 51.2h222.117647c22.738824 0 41.261176-23.04 41.261177-51.350589v-0.150588c0-19.877647 11.896471-36.592941 26.051764-36.592941H856.847059v120.470588z" fill="#DCDCDC" p-id="33193"></path></svg>