<svg class="icon" viewBox="0 0 1639 1024" version="1.1" xmlns="http://www.w3.org/2000/svg" p-id="36804" width="124" height="81"><path d="M0 423.96127c106.673552-133.34194 180.964061-164.77254 321.925541-220.014201s49.527006-114.293091 133.34194-121.912631 106.673552-74.290509 123.817516 16.191521 142.866364-142.866364 179.059176-66.67097 128.579728 33.335485 220.966644 38.097697S1186.743266-56.069714 1253.414236 28.697662c66.67097 84.767376 235.25328 393.358723 385.739184 393.358723L0 423.96127z" fill="#F7F7F7" p-id="36805"></path><path d="M281.922959 909.706909a542.892184 114.293091 0 1 0 1085.784369 0 542.892184 114.293091 0 1 0-1085.784369 0Z" fill="#F7F7F7" p-id="36806"></path><path d="M1167.694418 623.97418l-142.866365-228.586183h-400.02582l-142.866364 228.586183h236.205722v57.146546h228.586183v-57.146546z" fill="#FFFFFF" p-id="36807"></path><path d="M481.935869 623.97418v285.732729h685.758549v-285.732729H946.727774v57.146546h-228.586183v-57.146546z" fill="#F7F7F7" p-id="36808"></path><path d="M1171.504187 621.116853l-142.866364-228.586183c-0.952442-0.952442-2.857327-1.904885-3.80977-1.904885h-400.02582c-1.904885 0-2.857327 0.952442-3.809769 1.904885l-142.866365 228.586183v288.590056c0 2.857327 1.904885 4.762212 4.762212 4.762212h685.758549c2.857327 0 4.762212-1.904885 4.762212-4.762212v-285.732729c-0.952442-0.952442-0.952442-1.904885-1.904885-2.857327zM627.659561 400.150209h394.311165l137.15171 219.061759H946.727774c-2.857327 0-4.762212 1.904885-4.762212 4.762212V676.358513h-219.061758v-52.384333c0-2.857327-1.904885-4.762212-4.762213-4.762212H490.507851l137.15171-219.061759z m535.272645 504.794487h-676.234125V628.736392h226.681298v52.384334c0 2.857327 1.904885 4.762212 4.762212 4.762212h228.586183c2.857327 0 4.762212-1.904885 4.762212-4.762212V628.736392h211.44222v276.208304z" fill="#E2E2E2" p-id="36809"></path></svg>