<svg t="1603450704738" class="icon" viewBox="0 0 2023 1024" version="1.1" xmlns="http://www.w3.org/2000/svg" p-id="21896" width="294" height="294"><path d="M983.58745518 263.20711626m-699.89359443 0a699.8935944 699.8935944 0 1 0 1399.78719071 0 699.8935944 699.8935944 0 1 0-1399.78719071 0Z" fill="#E8EFFF" p-id="21897"></path><path d="M1633.88229191-193.32190432a59.9042778 55.10973157 90 1 0 110.21946503 0 59.9042778 55.10973157 90 1 0-110.21946503 0Z" fill="#E0E9FF" p-id="21898"></path><path d="M972.56550923-161.13782031h148.79627676a27.55486577 27.55486577 0 1 1 0 55.1097316h-148.79627676a27.55486577 27.55486577 0 1 1 0-55.1097316z" fill="#FFFFFF" p-id="21899"></path><path d="M1080.02948731-117.05003466h181.86211459a24.79937887 24.79937887 0 0 1 24.79937878 24.79937884 24.74426884 24.74426884 0 0 1-24.79937878 24.79937883h-181.86211459a24.74426884 24.74426884 0 0 1-24.79937882-24.79937883 24.79937887 24.79937887 0 0 1 24.79937882-24.79937884z" fill="#FFFFFF" p-id="21900"></path><path d="M217.06619545-240.05495699H934.53979528a21.49279601 21.49279601 0 0 1 21.49279408 21.54790597v337.21644894a21.43768605 21.43768605 0 0 1-21.49279408 21.492796H217.06619545a21.49279601 21.49279601 0 0 1-21.54790597-21.492796V-218.50705102a21.54790597 21.54790597 0 0 1 21.54790597-21.54790597z" fill="#C5D6FF" p-id="21901"></path><path d="M316.75970046-119.08909585m14.32853067 0l86.24673 0q14.32853067 0 14.32853068 14.32853067l0 86.24673194q0 14.32853067-14.32853068 14.32852876l-86.24673 0q-14.32853067 0-14.32853067-14.32852876l0-86.24673194q0-14.32853067 14.32853067-14.32853067Z" fill="#597EF7" p-id="21902"></path><path d="M1462.32569749 805.87264501c-21.49279601-113.58115787-26.28734224-149.0718247-33.78226549-177.06756835-308.89004741-7.93580107-394.97144944-9.47887446-394.97144942-9.47887444s-11.46282378 82.66459734-28.27129157 202.41804681a37.97060591 37.97060591 0 0 0 14.9898465 35.9866547c27.16909792 19.83950267 90.21463057 50.75606318 219.77761045 50.75606315a352.70228512 352.70228512 0 0 0 207.43303106-64.58860604 38.2461538 38.2461538 0 0 0 14.82451847-38.02571583" fill="#597EF7" p-id="21903"></path><path d="M1412.67182796 628.80507666l-2.700377-58.36120631-377.88742988-15.98182208-4.90476621 58.03054843s199.44212 18.57197914 385.76812293 16.53291985" fill="#597EF7" p-id="21904"></path><path d="M741.10463509 452.1783862c71.64265142 63.70685036 138.93163446-15.4307243 138.93163442-15.43072431s49.26809974-51.8582568 106.91288035-116.61219277c45.02465126-50.5356233 79.7437824-89.22265684 105.48002686-124.32755584 27.55486577-37.86038596 25.95668433-90.1595206-6.94382547-119.42278964-49.98452742-44.47355351-97.59933578-32.51474194-130.16918766 0.93686563-31.74320621 32.51474194-73.18572481 77.75983119-107.35375815 114.35269359C782.43693379 262.32535866 740.55353922 314.40405534 740.55353922 314.40405534s-69.49337221 75.44522207 0.55109587 137.77433086z" fill="#ADC6FF" p-id="21905"></path><path d="M474.75930186 3.75049659s38.57681172 80.4050982 80.5704281 80.23977019c37.97060591 0 44.08778564-48.60678396 44.08778563-48.60678392a342.78253279 342.78253279 0 0 0-9.86464231-80.07444031c-6.88871741-27.22420787-12.28946947-81.01130594-27.22420787-81.2317439-19.39862484-0.27554794-4.90476619 53.78709806-16.147152 62.38421684-22.76031954 17.35956559-55.10973157-64.47838608-67.23387306-75.11456607-24.08295303-20.77636831-51.52759891 46.34728479-4.40877838 142.40354717" fill="#FFB0AD" p-id="21906"></path><path d="M456.90374848-127.13511492c2.97592493-1.59818144 5.51097393 1.26752353 10.4157382 9.86464041l0.66131772 1.21241546a696.25635365 696.25635365 0 0 1 29.86947491 72.63462514 2.70037699 2.70037699 0 0 1-1.59818338 3.52702461 2.75548697 2.75548697 0 0 1-3.52702268-1.65329332l-1.59818147-4.29855845a652.77477388 652.77477388 0 0 0-27.55486577-67.17876309l-0.88175565-1.70840135a41.6078485 41.6078485 0 0 0-4.35366844-6.8887174l-0.33065977-0.3306579a3.69235262 3.69235262 0 0 1-0.99197371-0.38576787 2.75548697 2.75548697 0 0 1-0.44087786-3.85768253 2.86570689 2.86570689 0 0 1 0.3306579-0.93686371z" fill="#D64843" p-id="21907"></path><path d="M863.88911756 326.9139647s56.87324292 88.61644913-15.65116228 138.5458666c-74.78390626 51.47248893-133.25533253-31.02677852-133.25533253-31.02677853s-39.67900726-59.02252213-88.94710703-131.60204112c-30.08991287-44.08778564-62.27399692-93.68654331-80.5153181-133.25533062-19.78439462-42.59982221-1.10219555-61.06158333 35.16000894-85.97118211 43.04070006-29.64903504 63.81707029-37.52972803 95.50516461-3.19636478 30.2001328 32.79028987 64.80904399 81.83795165 93.35588539 118.59614396 54.3933058 70.154688 94.34786099 127.90968851 94.347861 127.9096866" fill="#ADC6FF" p-id="21908"></path><path d="M520.169721 76.55045354l83.87701095-57.69988863 45.02465126 52.46446456-95.89093248 66.07656752z" fill="#ADC6FF" p-id="21909"></path><path d="M1166.55176529-88.99918105h111.87275645v123.44580015h-111.87275645z" fill="#FFB0AD" p-id="21910"></path><path d="M1161.86743896-60.83810752l115.01400937 6.50294762 7.10915729 23.09097745-130.05896772 21.27235611z" fill="#D64843" p-id="21911"></path><path d="M1215.93008494-34.05477938c45.74107706 4.02301051 105.48002687-26.78333004 113.52604789-120.58009328 8.04602099-93.79676323 20.72125836-125.98084726-99.19751722-136.45169544-109.55814735-9.58909249-105.86579474 44.08778564-109.88880522 108.45595182-0.38576787 6.17228972-0.82664572 12.50990937-1.3777435 18.90263895-1.98395123 22.42966163 5.95185175 46.78816263 13.83254286 64.53349604 17.69022347 40.11988512 51.36227091 62.38421685 83.10547519 65.13970191z" fill="#FFB0AD" p-id="21912"></path><path d="M1316.67067555-394.36220576a127.68924863 127.68924863 0 0 1-4.1883404 24.35850099 25.46069653 25.46069653 0 0 1-8.32156896 11.35260573c2.09416924 3.19636479 7.7153631 4.35366842 16.9737977 3.47191273a49.59875957 49.59875957 0 0 0 22.92564946-7.21937529 50.9213931 50.9213931 0 0 1-9.86464234 22.98075941c15.54094425 11.02194592 25.6811345 22.53987967 29.04282731 31.90853419 8.10113099 22.70520956 15.65116418 82.66459734 6.99893731 120.24943538 0 0.66131771-0.38576787 1.8186213-0.6613177 3.1963629-1.8186213 9.2033246-5.84163184 30.4205727-10.08508028 23.36652728-4.8496562-8.10113099-17.35956559 47.72502828-19.56395474 53.29111026-4.8496562 12.12414149-14.82451847 17.6351135-29.92458489 16.53291983 15.21028635-38.86889475 22.19268858-60.7474567 20.94169824-65.63568969-1.87373127-7.32959521-16.09204203 0.49598779-25.84646441-19.94972452-6.54152442-13.59557171-9.9197523-37.80527598-10.14019027-72.63462512a430.18656645 430.18656645 0 0 1-75.88610179 10.41573817 345.97889762 345.97889762 0 0 1-89.99419071-10.41573817c-2.97592493 21.54790597-5.01498612 36.81330037-6.0069617 45.85129697-3.08614485 27.99574364-4.07812048 49.1578817-5.51097392 52.46446456-2.31460914 5.51097393-24.63405085-31.68809622-22.98075752-80.57042812 1.37774349-40.89142084 9.14821466-88.83688706 41.16697067-111.48698859A175.24894703 175.24894703 0 0 1 1204.02638334-370.00370477a89.60842471 89.60842471 0 0 1 21.10702813-1.92883936h8.43178888a245.07297711 245.07297711 0 0 0 46.29217484-8.87266671c11.9037016-3.89625739 24.17663981-8.41525569 36.81330036-13.55699492z" fill="#253368" p-id="21913"></path><path d="M1251.87859376-149.23645251a9.2033246 15.10006642 7 1 0 3.68046992-29.97502527 9.2033246 15.10006642 7 1 0-3.68046992 29.97502527Z" fill="#1A1A1A" p-id="21914"></path><path d="M1154.99535007-162.02904285a15.10006642 9.2033246 88 1 0 18.39543773-0.64238393 15.10006642 9.2033246 88 1 0-18.39543773 0.64238393Z" fill="#1A1A1A" p-id="21915"></path><path d="M1309.06553239-112.97191419c-13.2814451-3.08614485-19.83950267-36.4275325-16.53291989-49.59875955 3.30658471-13.17122515 38.1359339-27.94063364 51.36227093-24.90959876 13.22633513 3.03103489 18.84752897 19.45373482 15.76138414 33.0658397s-37.36439813 44.47355351-50.59073518 41.44251861z" fill="#FFB0AD" p-id="21916"></path><path d="M1148.14511603-198.44710848c11.68326365-9.09310658 23.69718517-6.55805758 34.99467906 6.77849745 1.62573737 2.09416924 1.62573737 5.01498612 0 7.10915539a3.63724261 3.63724261 0 0 1-5.84163182 0c-8.76244678-10.36063013-16.53291985-12.01392157-24.79937882-5.5109739a3.69235262 3.69235262 0 0 1-5.51097392-1.43285345 5.51097393 5.51097393 0 0 1 1.1573055-6.94382549zM1243.70539064-194.86497581c11.62815366-13.00589715 24.46872092-11.51793374 35.98665464 3.63724265a5.51097393 5.51097393 0 0 1-0.55109779 6.99893541 4.18834041 4.18834041 0 0 1-6.3376177-0.49598778c-8.37667891-11.02194592-15.10006642-11.79348357-22.76031956-3.19636481a4.24344847 4.24344847 0 0 1-6.39272959 0 5.51097393 5.51097393 0 0 1 0.05511-6.94382547z" fill="#49140D" p-id="21917"></path><path d="M1317.38710132-12.50687342l12.06903151 43.15091999s95.56027457 22.48476973 142.95464497 45.68596708c51.03161109 25.0198187 12.62012929 361.96071969-8.15624097 464.29949173 21.10702813 106.63733045-42.8202621 108.51106177-42.82026017 108.51106178l-385.32724699-1.76351136s-75.00434421-8.10113099-38.57681171-90.3248505c2.47993712-70.32001792-41.00164078-436.02819825-15.10006639-492.51567331 15.10006642-33.06583969 139.26229235-36.04176464 139.26229231-36.04176464l8.87266672-39.23812944a2.14927922 2.14927922 0 0 1 1.92884124-1.81862129c10.0850803-1.10219555 63.70685036 2.14927922 182.74387027-1.76351137a2.20438915 2.20438915 0 0 1 2.14927921 1.98395123" fill="#ADC6FF" p-id="21918"></path><path d="M1212.8439401 528.06448608l-297.59255165-0.4959859a19.06796694 19.06796694 0 0 1-18.24132123-13.39166501L796.21436666 195.75280333a19.17818687 19.17818687 0 0 1 18.2964312-24.96470873l297.59255352 0.49598781a19.17818687 19.17818687 0 0 1 18.24132128 13.39166501l100.85080861 318.42402995a19.17818687 19.17818687 0 0 1-18.2964312 24.96470871" fill="#4E5C93" p-id="21919"></path><path d="M1192.23290168 528.00937801l-297.59255353-0.49598778a19.06796694 19.06796694 0 0 1-18.24132124-13.33655506l-100.90591861-318.42403184a19.17818687 19.17818687 0 0 1 18.29643119-24.96470873l297.59255165 0.44087783a19.17818687 19.17818687 0 0 1 18.24132126 13.39166504l100.90592048 318.42403182a19.17818687 19.17818687 0 0 1-18.2964312 24.96470872" fill="#253368" p-id="21920"></path><path d="M1379.22022231 532.63859438s24.5238309 111.37676865 120.52498328 95.50516647c97.8748837-16.14715198 71.09155365-176.35114256 61.28202128-298.80496709-5.51097393-69.87914006-22.04389187-130.27940567-33.56182749-173.81609548-12.39968941-47.00860059-60.62070549-99.52817511-105.81068478-92.08836184-68.33606669 11.29749577-98.48109143 79.96422036-92.80478761 128.01990846 5.51097393 46.73305265 14.43875059 123.55601822 21.71323399 174.91828909 13.94276281 98.75663938 28.65706132 166.26606036 28.65706133 166.26606039" fill="#ADC6FF" p-id="21921"></path><path d="M959.22895417 562.01208146s90.3248505 19.17818687 116.66730271-15.32050434c23.86251316-31.19210844-11.79348357-67.06854316-11.79348168-67.0685451a357.66215936 357.66215936 0 0 0-71.64265142-42.48960226c-26.72822006-11.57304371-74.23280849-41.11186071-83.82190287-29.04282921-12.50990937 15.76138412 41.00164078 38.02571584 40.94653081 52.6849044 0 29.64903504-88.17557127 3.41680277-104.70849113 6.83360554-32.29430207 6.61316755 5.84163184 72.30396914 114.40780354 94.40297097" fill="#FFB0AD" p-id="21922"></path><path d="M1464.47497673 443.03016963s108.56617172 9.42376451 103.66140553 100.46504265c-5.07009607 93.68654331-109.66836729 89.60842471-109.66836728 89.60842282s-73.46127273-4.5741083-164.11678113-10.08508027c-55.10973157-3.36169278-116.33664479-8.32156896-160.14888062-18.24132125-47.39437037-11.02194592-50.70095319-37.69505604-48.27612413-83.21569515 2.92081498-54.00753793 9.64420243-76.05142979 57.81010855-80.29488014 45.96151691-4.02301051 108.01507395-1.37774349 156.23609005-1.48796151 91.92303195-0.27554794 164.502549 3.47191275 164.50254903 3.47191271" fill="#ADC6FF" p-id="21923"></path><path d="M1047.62496532 570.8296382l5.67630192-105.20447702 71.53243148-3.74746258-6.55805759 120.35965532z" fill="#ADC6FF" p-id="21924"></path><path d="M821.28929534 531.26085087c-0.42434467 180.10962598-146.70210561 325.81424556-326.81724201 325.53318721-180.11513639-0.28657067-325.93548823-146.44860128-325.79220387-326.56373962 0.14328441-180.10962598 146.18958653-326.04570627 326.30472294-326.04570627 180.4072175 0.21492754 326.48658414 146.61393117 326.30472294 327.02114873" fill="#FFC53D" p-id="21925"></path><path d="M145.91953184 872.77586016h690.8004878V180.542517H145.91953184z" fill="#FFC53D" p-id="21926"></path><path d="M583.21525363 485.85043172h-23.1460874v-23.14608742c0-37.49666166-30.39852718-67.89518885-67.89518884-67.89518883s-67.89518885 30.39852718-67.89519075 67.89518883v23.14608742h-23.14608745a30.86145053 30.86145053 0 0 0-30.86144859 30.86145051V634.04050075a30.86145053 30.86145053 0 0 0 30.86144859 30.86145054h181.86211648A30.86145053 30.86145053 0 0 0 614.3522521 634.04050075V516.71188223a30.80634055 30.80634055 0 0 0-31.13699847-30.86145051z m-137.33345106-23.14608742a46.29217484 46.29217484 0 0 1 92.58434961 0v23.14608742h-92.58434961v-23.14608742zM592.30836023 634.04050075a9.25843458 9.25843458 0 0 1-9.25843652 9.25843459h-181.86211452A9.31354454 9.31354454 0 0 1 391.87426461 634.04050075V516.71188223A9.26394501 9.26394501 0 0 1 401.13269919 507.28811777h181.86211648A9.25843458 9.25843458 0 0 1 592.30836023 516.71188223V634.04050075z" fill="#FFFFFF" p-id="21927"></path><path d="M492.17397739 541.40104113a11.02194592 11.02194592 0 0 0-11.02194786 11.02194784v52.46446453a11.02194592 11.02194592 0 0 0 21.60301594 0v-52.46446453a11.02194592 11.02194592 0 0 0-11.02194592-11.02194784h0.44087784z" fill="#FFFFFF" p-id="21928"></path><path d="M1352.82266012 803.00694003h43.70201776v-43.81223774H1352.82266012z" fill="#ADC6FF" p-id="21929"></path><path d="M1474.50494703 694.66120624h-64.80904401v-222.09221958a32.0738641 32.0738641 0 0 1 32.23919402-32.01875415h0.33065789a32.12897407 32.12897407 0 0 1 32.2391921 32.01875415V694.66120624z" fill="#51CF9D" p-id="21930"></path><path d="M1506.74414103 733.23801797h-65.02948386v-115.73043707a31.35743833 31.35743833 0 0 1 31.52276631-31.19210651h1.98395123a31.35743833 31.35743833 0 0 1 31.52276632 31.19210651v115.73043707z" fill="#24A974" p-id="21931"></path><path d="M1418.95433762 694.66120624h-65.19481185v-126.31150515a31.46765635 31.46765635 0 0 1 31.57787628-31.35743833h2.20438919a31.5227663 31.5227663 0 0 1 31.63298627 31.35743833L1418.95433762 694.66120624z" fill="#6BE1B2" p-id="21932"></path><path d="M1510.60182162 878.61749198h-170.23396088a12.12414149 12.12414149 0 0 1-12.17925145-12.06903155V699.06998461a12.0690315 12.0690315 0 0 1 12.17925145-12.01392152h170.23396088a12.0690315 12.0690315 0 0 1 12.17925147 12.01392152v167.47847582a12.12414149 12.12414149 0 0 1-12.17925147 12.06903155" fill="#253369" p-id="21933"></path></svg>